
----VHS-Rip---- 55 minutes, color, original air date: January 19, 1999.

Nova explores how nuclear submarines were used during the cold war. The film discusses the loss of the Thresher and Scorpion, the recovery effort of the K-129 using the Glomar Explorer, and the tapping the USSR's underwater communication cables.

May be slow if poorly seeded. Please help folks like you by seeding.

Video: Xvid 528x400 29.97fps 1995kbps 
Audio: Dolby AC3 48000Hz stereo 256kbps


Format                           : AVI
Format/Info                      : Audio Video Interleave
File size                        : 888 MiB
Duration                         : 54mn 57s
Overall bit rate                 : 2 260 Kbps
Writing application              : VirtualDubMod 1.5.4.1 (build 2178/release)
Writing library                  : VirtualDubMod build 2178/release

Video
ID                               : 0
Format                           : MPEG-4 Visual
Format profile                   : Advanced Simple@L5
Format settings, BVOP            : Yes
Format settings, QPel            : No
Format settings, GMC             : No warppoints
Format settings, Matrix          : Custom
Codec ID                         : XVID
Codec ID/Hint                    : XviD
Duration                         : 54mn 57s
Bit rate                         : 1 996 Kbps
Width                            : 528 pixels
Height                           : 400 pixels
Display aspect ratio             : 4:3
Frame rate                       : 29.970 fps
Color space                      : YUV
Chroma subsampling               : 4:2:0
Bit depth                        : 8 bits
Scan type                        : Progressive
Bits/(Pixel*Frame)               : 0.315
Stream size                      : 785 MiB (88%)
Writing library                  : XviD 57

Audio
ID                               : 1
Format                           : AC-3
Format/Info                      : Audio Coding 3
Mode extension                   : CM (complete main)
Codec ID                         : 2000
Duration                         : 54mn 57s
Bit rate mode                    : Constant
Bit rate                         : 256 Kbps
Channel(s)                       : 2 channels
Channel positions                : Front: L R
Sampling rate                    : 48.0 KHz
Bit depth                        : 16 bits
Stream size                      : 101 MiB (11%)
Alignment                        : Aligned on interleaves
Interleave, duration             : 96 ms (2.88 video frames)
Interleave, preload duration     : 96 ms
